<svg width="18" height="13" viewBox="0 0 18 13" fill="none" xmlns="http://www.w3.org/2000/svg">
<path fill-rule="evenodd" clip-rule="evenodd" d="M9.27443 3.10398C11.7615 3.10408 14.1535 4.02616 15.9561 5.67964C16.0918 5.8073 16.3087 5.80569 16.4424 5.67603L17.7399 4.41257C17.8076 4.34681 17.8453 4.25773 17.8448 4.16505C17.8442 4.07237 17.8054 3.98372 17.7369 3.91873C13.0059 -0.455984 5.54219 -0.455984 0.811181 3.91873C0.742649 3.98368 0.703765 4.07229 0.703133 4.16497C0.702501 4.25766 0.740173 4.34676 0.807814 4.41257L2.10568 5.67603C2.23928 5.80588 2.4564 5.8075 2.59205 5.67964C4.39479 4.02606 6.78707 3.10397 9.27443 3.10398ZM9.27107 7.32425C10.6284 7.32417 11.9373 7.83591 12.9434 8.76004C13.0795 8.89119 13.2938 8.88835 13.4265 8.75363L14.7138 7.43432C14.7816 7.36512 14.8192 7.27124 14.8182 7.17369C14.8172 7.07614 14.7777 6.98306 14.7086 6.91527C11.6447 4.02442 6.9 4.02442 3.83617 6.91527C3.76697 6.98306 3.72748 7.07619 3.72657 7.17377C3.72566 7.27135 3.76341 7.36522 3.83134 7.43432L5.11825 8.75363C5.25091 8.88835 5.46527 8.89119 5.60135 8.76004C6.60681 7.83652 7.91465 7.32482 9.27107 7.32425ZM11.7955 10.1178C11.7974 10.2232 11.7604 10.3247 11.6931 10.3985L9.5164 12.8533C9.45259 12.9254 9.3656 12.966 9.27483 12.966C9.18406 12.966 9.09706 12.9254 9.03326 12.8533L6.85623 10.3985C6.78898 10.3247 6.75198 10.2231 6.75398 10.1177C6.75597 10.0124 6.79678 9.9126 6.86676 9.84199C8.25686 8.52809 10.2928 8.52809 11.6829 9.84199C11.7528 9.91266 11.7936 10.0125 11.7955 10.1178Z" fill="white"/>
</svg>
